<?xml version="1.0" encoding="UTF-8"?>
<svg xmlns="http://www.w3.org/2000/svg" xmlns:xlink="http://www.w3.org/1999/xlink" width="16pt" height="16pt" viewBox="0 0 16 16" version="1.1">
<g id="surface1">
<path style=" stroke:none;fill-rule:nonzero;fill:rgb(60.392157%,28.627451%,57.647059%);fill-opacity:1;" d="M 15.042969 4.730469 C 15.042969 4.464844 14.988281 4.226562 14.871094 4.027344 C 14.757812 3.828125 14.585938 3.664062 14.363281 3.53125 C 12.488281 2.453125 10.609375 1.371094 8.734375 0.289062 C 8.226562 0 7.738281 0.0078125 7.234375 0.304688 C 6.488281 0.742188 2.75 2.886719 1.636719 3.53125 C 1.179688 3.796875 0.957031 4.203125 0.957031 4.734375 L 0.957031 11.261719 C 0.957031 11.523438 1.011719 11.75 1.121094 11.953125 C 1.234375 12.15625 1.40625 12.328125 1.636719 12.464844 C 2.753906 13.109375 6.488281 15.25 7.234375 15.691406 C 7.738281 15.988281 8.230469 16 8.734375 15.703125 C 10.609375 14.621094 12.488281 13.542969 14.363281 12.464844 C 14.597656 12.328125 14.765625 12.160156 14.878906 11.953125 C 14.988281 11.75 15.042969 11.523438 15.042969 11.261719 Z M 15.042969 4.730469 "/>
<path style=" stroke:none;fill-rule:nonzero;fill:rgb(41.568627%,8.235294%,46.666667%);fill-opacity:1;" d="M 8.015625 7.972656 L 1.113281 11.945312 C 1.226562 12.152344 1.398438 12.324219 1.628906 12.457031 C 2.746094 13.105469 6.480469 15.246094 7.226562 15.6875 C 7.730469 15.984375 8.222656 15.996094 8.726562 15.699219 C 10.597656 14.617188 12.476562 13.539062 14.351562 12.457031 C 14.585938 12.324219 14.757812 12.15625 14.871094 11.945312 Z M 8.015625 7.972656 "/>
<path style=" stroke:none;fill-rule:nonzero;fill:rgb(41.568627%,8.235294%,46.666667%);fill-opacity:1;" d="M 5.972656 9.148438 C 6.378906 9.851562 7.132812 10.324219 7.996094 10.324219 C 8.867188 10.324219 9.628906 9.847656 10.027344 9.136719 L 8.015625 7.972656 Z M 5.972656 9.148438 "/>
<path style=" stroke:none;fill-rule:nonzero;fill:rgb(50.588235%,18.823529%,51.764706%);fill-opacity:1;" d="M 15.042969 4.730469 C 15.042969 4.464844 14.988281 4.226562 14.871094 4.027344 L 8.015625 7.972656 L 14.878906 11.945312 C 14.988281 11.746094 15.042969 11.515625 15.042969 11.257812 Z M 15.042969 4.730469 "/>
<path style=" stroke:none;fill-rule:nonzero;fill:rgb(100%,100%,100%);fill-opacity:1;" d="M 10.027344 9.136719 C 9.628906 9.84375 8.867188 10.324219 7.996094 10.324219 C 7.128906 10.324219 6.371094 9.851562 5.972656 9.148438 C 5.777344 8.804688 5.664062 8.414062 5.664062 7.992188 C 5.664062 6.703125 6.707031 5.664062 7.996094 5.664062 C 8.855469 5.664062 9.605469 6.132812 10.007812 6.824219 L 12.042969 5.65625 C 11.234375 4.257812 9.722656 3.316406 7.992188 3.316406 C 5.40625 3.316406 3.3125 5.410156 3.3125 7.992188 C 3.3125 8.839844 3.539062 9.636719 3.933594 10.324219 C 4.742188 11.726562 6.261719 12.671875 7.996094 12.671875 C 9.734375 12.671875 11.253906 11.722656 12.0625 10.3125 Z M 12.601562 6.886719 L 12.136719 6.886719 L 12.136719 9.128906 L 12.601562 9.128906 Z M 13.628906 6.886719 L 13.164062 6.886719 L 13.164062 9.128906 L 13.628906 9.128906 Z M 13.628906 6.886719 "/>
<path style=" stroke:none;fill-rule:nonzero;fill:rgb(100%,100%,100%);fill-opacity:1;" d="M 14.007812 7.265625 L 11.761719 7.265625 L 11.761719 7.730469 L 14.007812 7.730469 Z M 14.007812 8.289062 L 11.761719 8.289062 L 11.761719 8.753906 L 14.007812 8.753906 Z M 14.007812 8.289062 "/>
</g>
</svg>
