<?xml version="1.0" encoding="UTF-8"?>
<svg xmlns="http://www.w3.org/2000/svg" xmlns:xlink="http://www.w3.org/1999/xlink" width="16pt" height="18pt" viewBox="0 0 16 18" version="1.1">
<g id="surface1">
<path style=" stroke:none;fill-rule:nonzero;fill:rgb(66.27451%,72.54902%,79.607843%);fill-opacity:1;" d="M 16 5.355469 C 16 5.050781 15.933594 4.785156 15.804688 4.554688 C 15.675781 4.328125 15.484375 4.140625 15.226562 3.992188 C 13.09375 2.761719 10.960938 1.535156 8.832031 0.304688 C 8.257812 -0.0273438 7.703125 -0.015625 7.132812 0.324219 C 6.285156 0.824219 2.039062 3.257812 0.773438 3.988281 C 0.253906 4.292969 0 4.753906 0 5.355469 C 0 7.828125 0 10.296875 0 12.769531 C 0 13.066406 0.0625 13.328125 0.1875 13.554688 C 0.316406 13.789062 0.511719 13.980469 0.773438 14.132812 C 2.039062 14.867188 6.285156 17.300781 7.132812 17.800781 C 7.703125 18.140625 8.257812 18.152344 8.832031 17.820312 C 10.960938 16.589844 13.09375 15.363281 15.226562 14.132812 C 15.488281 13.980469 15.683594 13.785156 15.8125 13.554688 C 15.9375 13.328125 16 13.066406 16 12.769531 C 16 12.769531 16 7.828125 16 5.355469 "/>
<path style=" stroke:none;fill-rule:nonzero;fill:rgb(49.803922%,54.509804%,60%);fill-opacity:1;" d="M 8.820312 0.320312 C 8.246094 -0.0078125 7.691406 0.00390625 7.121094 0.339844 C 6.273438 0.835938 2.035156 3.265625 0.773438 3.996094 C 0.253906 4.296875 0 4.757812 0 5.355469 C 0 7.824219 0 10.289062 0 12.753906 C 0 13.050781 0.0625 13.3125 0.1875 13.535156 C 0.316406 13.769531 0.511719 13.960938 0.773438 14.113281 C 1.191406 14.359375 1.613281 14.597656 2.035156 14.839844 L 13.726562 3.148438 C 12.089844 2.207031 10.453125 1.265625 8.820312 0.320312 "/>
<path style=" stroke:none;fill-rule:nonzero;fill:rgb(100%,100%,100%);fill-opacity:1;" d="M 9.652344 7.9375 L 12.144531 7.953125 C 12.144531 6.914062 11.09375 4.375 8.082031 4.375 C 6.164062 4.375 3.585938 5.59375 3.585938 9.101562 C 3.585938 12.605469 6.113281 13.75 8.082031 13.75 C 11.269531 13.75 12.035156 11.542969 12.035156 10.296875 L 9.65625 10.160156 C 9.65625 10.160156 9.722656 11.601562 8.070312 11.601562 C 6.546875 11.601562 6.292969 9.734375 6.292969 9.101562 C 6.292969 8.136719 6.632812 6.585938 8.070312 6.585938 C 9.503906 6.585938 9.652344 7.9375 9.652344 7.9375 "/>
</g>
</svg>
