<?xml version="1.0" encoding="UTF-8"?>
<svg xmlns="http://www.w3.org/2000/svg" xmlns:xlink="http://www.w3.org/1999/xlink" width="16pt" height="18pt" viewBox="0 0 16 18" version="1.1">
<g id="surface1">
<path style=" stroke:none;fill-rule:nonzero;fill:rgb(36.078431%,55.294118%,73.72549%);fill-opacity:1;" d="M 15.972656 5.292969 C 15.972656 4.992188 15.910156 4.726562 15.777344 4.496094 C 15.648438 4.273438 15.457031 4.082031 15.199219 3.933594 C 13.074219 2.707031 10.945312 1.484375 8.820312 0.257812 C 8.246094 -0.0742188 7.691406 -0.0585938 7.121094 0.273438 C 6.273438 0.773438 2.035156 3.203125 0.773438 3.933594 C 0.253906 4.234375 0 4.695312 0 5.292969 C 0 7.757812 0 10.226562 0 12.691406 C 0 12.984375 0.0625 13.246094 0.1875 13.472656 C 0.316406 13.707031 0.511719 13.898438 0.773438 14.050781 C 2.035156 14.78125 6.273438 17.210938 7.121094 17.710938 C 7.691406 18.046875 8.246094 18.058594 8.820312 17.726562 C 10.945312 16.5 13.074219 15.277344 15.199219 14.050781 C 15.464844 13.898438 15.660156 13.703125 15.789062 13.472656 C 15.910156 13.246094 15.972656 12.984375 15.972656 12.691406 C 15.972656 12.691406 15.972656 7.761719 15.972656 5.292969 "/>
<path style=" stroke:none;fill-rule:nonzero;fill:rgb(10.196078%,27.45098%,45.490196%);fill-opacity:1;" d="M 8.011719 8.96875 L 0.1875 13.472656 C 0.316406 13.707031 0.511719 13.898438 0.773438 14.050781 C 2.035156 14.78125 6.273438 17.210938 7.121094 17.710938 C 7.691406 18.046875 8.246094 18.058594 8.820312 17.726562 C 10.945312 16.5 13.074219 15.277344 15.199219 14.050781 C 15.464844 13.898438 15.660156 13.703125 15.789062 13.472656 L 8.011719 8.96875 "/>
<path style=" stroke:none;fill-rule:nonzero;fill:rgb(10.196078%,27.45098%,45.490196%);fill-opacity:1;" d="M 5.695312 10.304688 C 6.148438 11.097656 7.003906 11.632812 7.988281 11.632812 C 8.976562 11.632812 9.835938 11.089844 10.289062 10.289062 L 8.011719 8.96875 L 5.695312 10.304688 "/>
<path style=" stroke:none;fill-rule:nonzero;fill:rgb(10.588235%,34.901961%,55.686275%);fill-opacity:1;" d="M 15.972656 5.292969 C 15.972656 4.992188 15.910156 4.726562 15.777344 4.496094 L 8.011719 8.96875 L 15.789062 13.472656 C 15.910156 13.246094 15.972656 12.984375 15.972656 12.691406 C 15.972656 12.691406 15.972656 7.761719 15.972656 5.292969 "/>
<path style=" stroke:none;fill-rule:nonzero;fill:rgb(100%,100%,100%);fill-opacity:1;" d="M 15.546875 9.289062 L 14.9375 9.289062 L 14.9375 9.898438 L 14.332031 9.898438 L 14.332031 9.289062 L 13.722656 9.289062 L 13.722656 8.683594 L 14.332031 8.683594 L 14.332031 8.074219 L 14.9375 8.074219 L 14.9375 8.683594 L 15.546875 8.683594 L 15.546875 9.289062 M 13.328125 9.289062 L 12.722656 9.289062 L 12.722656 9.898438 L 12.113281 9.898438 L 12.113281 9.289062 L 11.503906 9.289062 L 11.503906 8.683594 L 12.113281 8.683594 L 12.113281 8.074219 L 12.722656 8.074219 L 12.722656 8.683594 L 13.328125 8.683594 L 13.328125 9.289062 "/>
<path style=" stroke:none;fill-rule:nonzero;fill:rgb(100%,100%,100%);fill-opacity:1;" d="M 10.289062 10.289062 C 9.835938 11.089844 8.976562 11.632812 7.988281 11.632812 C 7.003906 11.632812 6.148438 11.097656 5.695312 10.304688 C 5.464844 9.902344 5.34375 9.453125 5.34375 8.992188 C 5.34375 7.535156 6.527344 6.351562 7.988281 6.351562 C 8.960938 6.351562 9.8125 6.878906 10.273438 7.667969 L 12.582031 6.339844 C 11.664062 4.753906 9.949219 3.6875 7.988281 3.6875 C 5.058594 3.6875 2.683594 6.0625 2.683594 8.992188 C 2.683594 9.953125 2.9375 10.855469 3.386719 11.632812 C 4.300781 13.222656 6.019531 14.296875 7.988281 14.296875 C 9.960938 14.296875 11.679688 13.21875 12.59375 11.621094 L 10.289062 10.289062 "/>
</g>
</svg>
