<?xml version="1.0" encoding="UTF-8"?>
<svg xmlns="http://www.w3.org/2000/svg" xmlns:xlink="http://www.w3.org/1999/xlink" width="16pt" height="16pt" viewBox="0 0 16 16" version="1.1">
<g id="surface1">
<path style=" stroke:none;fill-rule:nonzero;fill:rgb(99.215686%,59.607843%,17.254902%);fill-opacity:1;" d="M 0.84375 0 L 2.226562 14.421875 L 8.054688 16 L 13.800781 14.421875 L 15.183594 0 Z M 0.84375 0 "/>
<path style=" stroke:none;fill-rule:nonzero;fill:rgb(98.039216%,31.372549%,18.039216%);fill-opacity:1;" d="M 8.054688 0 L 8.054688 16 L 13.800781 14.421875 L 15.183594 0 Z M 8.054688 0 "/>
<path style=" stroke:none;fill-rule:nonzero;fill:rgb(100%,100%,100%);fill-opacity:1;" d="M 12.316406 4.980469 L 6.195312 4.980469 L 6.300781 6.101562 L 12.289062 6.101562 L 11.804688 12.355469 L 8.050781 13.449219 L 4.019531 12.195312 L 4.019531 9.65625 L 6.523438 9.65625 L 6.523438 10.414062 L 8.050781 10.886719 L 9.496094 10.414062 L 9.601562 8.539062 L 4.058594 8.539062 L 3.429688 2.570312 L 12.316406 2.570312 Z M 12.316406 4.980469 "/>
<path style=" stroke:none;fill-rule:nonzero;fill:rgb(87.058824%,92.54902%,94.509804%);fill-opacity:1;" d="M 8.054688 2.570312 L 12.316406 2.570312 L 12.316406 4.980469 L 8.054688 4.980469 Z M 8.054688 2.570312 "/>
<path style=" stroke:none;fill-rule:nonzero;fill:rgb(87.058824%,92.54902%,94.509804%);fill-opacity:1;" d="M 9.601562 8.539062 L 9.496094 10.414062 L 8.054688 10.882812 L 8.054688 13.445312 L 11.804688 12.355469 L 12.289062 6.101562 L 8.054688 6.101562 L 8.054688 8.539062 Z M 9.601562 8.539062 "/>
</g>
</svg>
