<?xml version="1.0" encoding="UTF-8"?>
<svg xmlns="http://www.w3.org/2000/svg" xmlns:xlink="http://www.w3.org/1999/xlink" width="16pt" height="16pt" viewBox="0 0 16 16" version="1.1">
<g id="surface1">
<rect x="0" y="0" width="16" height="16" style="fill:rgb(100%,100%,100%);fill-opacity:1;stroke:none;"/>
<path style=" stroke:none;fill-rule:evenodd;fill:rgb(19.215686%,45.490196%,72.54902%);fill-opacity:1;" d="M 6.671875 8.445312 C 6.671875 8.445312 6.289062 8.667969 6.945312 8.742188 C 7.738281 8.832031 8.140625 8.820312 9.015625 8.652344 C 9.015625 8.652344 9.246094 8.796875 9.566406 8.921875 C 7.609375 9.761719 5.132812 8.875 6.671875 8.445312 Z M 6.433594 7.347656 C 6.433594 7.347656 6.003906 7.667969 6.65625 7.734375 C 7.503906 7.820312 8.175781 7.828125 9.332031 7.605469 C 9.332031 7.605469 9.492188 7.769531 9.742188 7.855469 C 7.375 8.550781 4.738281 7.910156 6.433594 7.347656 Z M 6.433594 7.347656 "/>
<path style=" stroke:none;fill-rule:evenodd;fill:rgb(79.215686%,19.215686%,19.607843%);fill-opacity:1;" d="M 8.449219 5.492188 C 8.933594 6.046875 8.324219 6.546875 8.324219 6.546875 C 8.324219 6.546875 9.550781 5.914062 8.984375 5.121094 C 8.460938 4.382812 8.058594 4.015625 10.238281 2.75 C 10.238281 2.75 6.8125 3.605469 8.449219 5.492188 Z M 8.449219 5.492188 "/>
<path style=" stroke:none;fill-rule:evenodd;fill:rgb(19.215686%,45.490196%,72.54902%);fill-opacity:1;" d="M 11.039062 9.253906 C 11.039062 9.253906 11.324219 9.488281 10.730469 9.667969 C 9.597656 10.011719 6.023438 10.113281 5.03125 9.683594 C 4.671875 9.527344 5.34375 9.3125 5.554688 9.265625 C 5.773438 9.21875 5.898438 9.226562 5.898438 9.226562 C 5.5 8.945312 3.332031 9.777344 4.796875 10.011719 C 8.789062 10.660156 12.078125 9.722656 11.039062 9.253906 Z M 6.855469 6.214844 C 6.855469 6.214844 5.035156 6.644531 6.210938 6.800781 C 6.707031 6.867188 7.695312 6.855469 8.617188 6.777344 C 9.371094 6.714844 10.125 6.578125 10.125 6.578125 C 10.125 6.578125 9.859375 6.691406 9.667969 6.824219 C 7.820312 7.308594 4.253906 7.082031 5.28125 6.585938 C 6.148438 6.164062 6.855469 6.214844 6.855469 6.214844 Z M 10.117188 8.035156 C 11.996094 7.0625 11.128906 6.125 10.519531 6.25 C 10.371094 6.28125 10.304688 6.308594 10.304688 6.308594 C 10.304688 6.308594 10.363281 6.222656 10.464844 6.183594 C 11.664062 5.761719 12.585938 7.425781 10.082031 8.085938 C 10.082031 8.085938 10.109375 8.058594 10.117188 8.035156 Z M 10.117188 8.035156 "/>
<path style=" stroke:none;fill-rule:evenodd;fill:rgb(79.215686%,19.215686%,19.607843%);fill-opacity:1;" d="M 8.984375 0.707031 C 8.984375 0.707031 10.027344 1.746094 8 3.34375 C 6.375 4.628906 7.628906 5.359375 8 6.195312 C 7.050781 5.339844 6.355469 4.585938 6.820312 3.886719 C 7.507812 2.855469 9.40625 2.359375 8.984375 0.707031 Z M 8.984375 0.707031 "/>
<path style=" stroke:none;fill-rule:evenodd;fill:rgb(19.215686%,45.490196%,72.54902%);fill-opacity:1;" d="M 7.039062 10.679688 C 8.839844 10.796875 11.609375 10.617188 11.675781 9.765625 C 11.675781 9.765625 11.546875 10.085938 10.183594 10.34375 C 8.648438 10.632812 6.75 10.597656 5.625 10.414062 C 5.625 10.414062 5.855469 10.605469 7.039062 10.679688 Z M 7.039062 10.679688 "/>
<path style=" stroke:none;fill-rule:evenodd;fill:rgb(79.215686%,19.215686%,19.607843%);fill-opacity:1;" d="M 11.589844 12.210938 L 11.535156 12.210938 L 11.535156 12.179688 L 11.683594 12.179688 L 11.683594 12.210938 L 11.628906 12.210938 L 11.628906 12.363281 L 11.589844 12.363281 Z M 11.886719 12.21875 L 11.832031 12.363281 L 11.804688 12.363281 L 11.753906 12.21875 L 11.75 12.21875 L 11.75 12.363281 L 11.714844 12.363281 L 11.714844 12.179688 L 11.769531 12.179688 L 11.820312 12.308594 L 11.867188 12.179688 L 11.921875 12.179688 L 11.921875 12.363281 L 11.886719 12.363281 Z M 6.746094 13.9375 C 6.574219 14.085938 6.394531 14.167969 6.234375 14.167969 C 6.003906 14.167969 5.878906 14.03125 5.878906 13.808594 C 5.878906 13.570312 6.011719 13.394531 6.546875 13.394531 L 6.746094 13.394531 Z M 7.214844 14.46875 L 7.214844 12.828125 C 7.214844 12.410156 6.976562 12.136719 6.398438 12.136719 C 6.0625 12.136719 5.769531 12.21875 5.53125 12.324219 L 5.597656 12.613281 C 5.789062 12.542969 6.03125 12.480469 6.269531 12.480469 C 6.601562 12.480469 6.746094 12.613281 6.746094 12.890625 L 6.746094 13.097656 L 6.578125 13.097656 C 5.773438 13.097656 5.410156 13.410156 5.410156 13.878906 C 5.410156 14.285156 5.648438 14.515625 6.101562 14.515625 C 6.390625 14.515625 6.605469 14.394531 6.808594 14.21875 L 6.84375 14.46875 Z M 8.777344 14.46875 L 8.195312 14.46875 L 7.488281 12.175781 L 8 12.175781 L 8.4375 13.585938 L 8.535156 14.007812 C 8.753906 13.394531 8.910156 12.773438 8.992188 12.175781 L 9.488281 12.175781 C 9.355469 12.929688 9.113281 13.757812 8.777344 14.46875 Z M 11.023438 13.9375 C 10.851562 14.085938 10.671875 14.167969 10.511719 14.167969 C 10.28125 14.167969 10.15625 14.03125 10.15625 13.808594 C 10.15625 13.570312 10.292969 13.394531 10.824219 13.394531 L 11.023438 13.394531 Z M 11.492188 14.46875 L 11.492188 12.828125 C 11.492188 12.410156 11.253906 12.136719 10.679688 12.136719 C 10.34375 12.136719 10.046875 12.21875 9.808594 12.324219 L 9.878906 12.613281 C 10.066406 12.542969 10.308594 12.480469 10.550781 12.480469 C 10.878906 12.480469 11.023438 12.613281 11.023438 12.890625 L 11.023438 13.097656 L 10.855469 13.097656 C 10.050781 13.097656 9.6875 13.410156 9.6875 13.878906 C 9.6875 14.285156 9.929688 14.515625 10.378906 14.515625 C 10.667969 14.515625 10.886719 14.394531 11.085938 14.21875 L 11.125 14.46875 Z M 4.894531 14.855469 C 4.761719 15.050781 4.546875 15.207031 4.308594 15.292969 L 4.078125 15.019531 C 4.257812 14.929688 4.414062 14.78125 4.484375 14.640625 C 4.546875 14.515625 4.570312 14.359375 4.570312 13.976562 L 4.570312 11.363281 L 5.070312 11.363281 L 5.070312 13.941406 C 5.070312 14.449219 5.03125 14.65625 4.894531 14.855469 Z M 4.894531 14.855469 "/>
</g>
</svg>
