<?xml version="1.0" encoding="UTF-8"?>
<svg xmlns="http://www.w3.org/2000/svg" xmlns:xlink="http://www.w3.org/1999/xlink" width="16pt" height="16pt" viewBox="0 0 16 16" version="1.1">
<defs>
<linearGradient id="linear0" gradientUnits="userSpaceOnUse" x1="0.15791" y1="0.14737" x2="0.91009" y2="0.85228" gradientTransform="matrix(14.984375,0,0,15.988281,0,0.0117188)">
<stop offset="0" style="stop-color:rgb(0%,0%,0%);stop-opacity:1;"/>
<stop offset="1" style="stop-color:rgb(100%,100%,100%);stop-opacity:1;"/>
</linearGradient>
<linearGradient id="linear1" gradientUnits="userSpaceOnUse" x1="0.82136" y1="0.85237" x2="-0.03113" y2="0.1479" gradientTransform="matrix(13.222656,0,0,15.988281,2.777344,0.0117188)">
<stop offset="0" style="stop-color:rgb(0%,0%,0%);stop-opacity:1;"/>
<stop offset="1" style="stop-color:rgb(100%,100%,100%);stop-opacity:1;"/>
</linearGradient>
</defs>
<g id="surface1">
<path style=" stroke:none;fill-rule:nonzero;fill:url(#linear0);" d="M 7.988281 11.910156 C 11.527344 16.734375 14.992188 10.5625 14.984375 6.851562 C 14.980469 2.460938 10.53125 0.0117188 7.984375 0.0117188 C 3.894531 0.0117188 0 3.390625 0 8.011719 C 0 13.152344 4.464844 16 7.984375 16 C 7.1875 15.886719 4.53125 15.316406 4.496094 9.203125 C 4.472656 5.070312 5.847656 3.417969 7.976562 4.144531 C 8.027344 4.160156 10.328125 5.070312 10.328125 8.039062 C 10.328125 10.996094 7.988281 11.910156 7.988281 11.910156 Z M 7.988281 11.910156 "/>
<path style=" stroke:none;fill-rule:nonzero;fill:url(#linear1);" d="M 7.980469 4.140625 C 5.644531 3.332031 2.777344 5.261719 2.777344 9.121094 C 2.777344 15.429688 7.449219 16 8.015625 16 C 12.105469 16 16 12.621094 16 7.996094 C 16 2.855469 11.535156 0.0117188 8.015625 0.0117188 C 8.992188 -0.125 13.269531 1.066406 13.269531 6.914062 C 13.269531 10.726562 10.074219 12.804688 7.996094 11.917969 C 7.949219 11.898438 5.644531 10.992188 5.644531 8.023438 C 5.644531 5.066406 7.980469 4.140625 7.980469 4.140625 Z M 7.980469 4.140625 "/>
</g>
</svg>
