<?xml version="1.0" encoding="UTF-8"?>
<svg xmlns="http://www.w3.org/2000/svg" xmlns:xlink="http://www.w3.org/1999/xlink" width="16pt" height="16pt" viewBox="0 0 16 16" version="1.1">
<g id="surface1">
<rect x="0" y="0" width="16" height="16" style="fill:rgb(94.117647%,85.882353%,30.980392%);fill-opacity:1;stroke:none;"/>
<path style=" stroke:none;fill-rule:nonzero;fill:rgb(19.607843%,20%,18.823529%);fill-opacity:1;" d="M 14.691406 12.183594 C 14.574219 11.453125 14.097656 10.839844 12.6875 10.269531 C 12.199219 10.042969 11.652344 9.882812 11.488281 9.511719 C 11.429688 9.296875 11.421875 9.175781 11.460938 9.042969 C 11.566406 8.617188 12.070312 8.488281 12.472656 8.609375 C 12.730469 8.695312 12.976562 8.894531 13.125 9.210938 C 13.8125 8.765625 13.8125 8.769531 14.296875 8.460938 C 14.117188 8.1875 14.023438 8.0625 13.910156 7.945312 C 13.492188 7.480469 12.929688 7.242188 12.023438 7.257812 C 11.867188 7.277344 11.707031 7.300781 11.550781 7.320312 C 11.101562 7.433594 10.667969 7.671875 10.417969 7.988281 C 9.660156 8.847656 9.875 10.351562 10.796875 10.972656 C 11.703125 11.652344 13.039062 11.808594 13.210938 12.445312 C 13.375 13.226562 12.636719 13.476562 11.902344 13.386719 C 11.359375 13.277344 11.058594 13 10.734375 12.5 C 10.132812 12.847656 10.132812 12.847656 9.519531 13.203125 C 9.664062 13.519531 9.816406 13.664062 10.0625 13.941406 C 11.222656 15.117188 14.121094 15.058594 14.640625 13.28125 C 14.664062 13.21875 14.804688 12.8125 14.691406 12.183594 Z M 8.699219 7.355469 L 7.203125 7.355469 C 7.203125 8.644531 7.195312 9.929688 7.195312 11.222656 C 7.195312 12.046875 7.238281 12.800781 7.105469 13.03125 C 6.886719 13.484375 6.316406 13.429688 6.058594 13.339844 C 5.796875 13.210938 5.664062 13.027344 5.507812 12.769531 C 5.464844 12.695312 5.433594 12.636719 5.421875 12.632812 C 5.015625 12.878906 4.613281 13.128906 4.207031 13.375 C 4.40625 13.792969 4.707031 14.152344 5.085938 14.386719 C 5.65625 14.726562 6.425781 14.832031 7.226562 14.648438 C 7.746094 14.496094 8.199219 14.183594 8.433594 13.703125 C 8.773438 13.074219 8.699219 12.316406 8.699219 11.472656 C 8.707031 10.101562 8.699219 8.730469 8.699219 7.355469 Z M 8.699219 7.355469 "/>
</g>
</svg>
