<?xml version="1.0" encoding="UTF-8"?>
<svg xmlns="http://www.w3.org/2000/svg" xmlns:xlink="http://www.w3.org/1999/xlink" width="16pt" height="16pt" viewBox="0 0 16 16" version="1.1">
<defs>
<linearGradient id="linear0" gradientUnits="userSpaceOnUse" x1="70.252" y1="1237.476" x2="170.659" y2="1151.089" gradientTransform="matrix(0.070375,0,0,-0.071,-3.651875,88.477125)">
<stop offset="0" style="stop-color:rgb(35.294118%,62.352941%,83.137255%);stop-opacity:1;"/>
<stop offset="1" style="stop-color:rgb(18.823529%,41.176471%,59.607843%);stop-opacity:1;"/>
</linearGradient>
<linearGradient id="linear1" gradientUnits="userSpaceOnUse" x1="209.474" y1="1098.811" x2="173.62" y2="1149.537" gradientTransform="matrix(0.070375,0,0,-0.071,-3.651875,88.477125)">
<stop offset="0" style="stop-color:rgb(100%,83.137255%,23.137255%);stop-opacity:1;"/>
<stop offset="1" style="stop-color:rgb(100%,90.980392%,45.098039%);stop-opacity:1;"/>
</linearGradient>
<filter id="alpha" filterUnits="objectBoundingBox" x="0%" y="0%" width="100%" height="100%">
  <feColorMatrix type="matrix" in="SourceGraphic" values="0 0 0 0 1 0 0 0 0 1 0 0 0 0 1 0 0 0 1 0"/>
</filter>
<mask id="mask0">
  <g filter="url(#alpha)">
<rect x="0" y="0" width="16" height="16" style="fill:rgb(0%,0%,0%);fill-opacity:0.443137;stroke:none;"/>
  </g>
</mask>
<radialGradient id="radial0" gradientUnits="userSpaceOnUse" cx="1825.678" cy="444.45" fx="1825.678" fy="444.45" r="26.743" gradientTransform="matrix(0,-0.03,-0.131875,0,66.622375,69.697)">
<stop offset="0" style="stop-color:rgb(72.156863%,72.156863%,72.156863%);stop-opacity:0.498039;"/>
<stop offset="1" style="stop-color:rgb(49.803922%,49.803922%,49.803922%);stop-opacity:0;"/>
</radialGradient>
<clipPath id="clip1">
  <rect width="16" height="16"/>
</clipPath>
<g id="surface6" clip-path="url(#clip1)">
<path style=" stroke:none;fill-rule:nonzero;fill:url(#radial0);" d="M 12.164062 14.949219 C 12.164062 15.390625 10.3125 15.75 8.027344 15.75 C 5.742188 15.75 3.890625 15.390625 3.890625 14.949219 C 3.890625 14.507812 5.742188 14.148438 8.027344 14.148438 C 10.3125 14.148438 12.164062 14.507812 12.164062 14.949219 Z M 12.164062 14.949219 "/>
</g>
</defs>
<g id="surface1">
<path style=" stroke:none;fill-rule:nonzero;fill:url(#linear0);" d="M 7.925781 0.25 C 7.394531 0.25 6.890625 0.296875 6.449219 0.375 C 5.144531 0.605469 4.90625 1.089844 4.90625 1.980469 L 4.90625 3.15625 L 7.992188 3.15625 L 7.992188 3.546875 L 3.746094 3.546875 C 2.851562 3.546875 2.066406 4.085938 1.820312 5.113281 C 1.535156 6.289062 1.523438 7.023438 1.820312 8.25 C 2.039062 9.164062 2.5625 9.816406 3.460938 9.816406 L 4.519531 9.816406 L 4.519531 8.402344 C 4.519531 7.386719 5.402344 6.488281 6.449219 6.488281 L 9.53125 6.488281 C 10.390625 6.488281 11.074219 5.78125 11.074219 4.917969 L 11.074219 1.980469 C 11.074219 1.140625 10.371094 0.515625 9.53125 0.375 C 9 0.285156 8.453125 0.246094 7.925781 0.25 Z M 6.253906 1.195312 C 6.574219 1.195312 6.832031 1.460938 6.832031 1.785156 C 6.832031 2.109375 6.574219 2.371094 6.253906 2.371094 C 5.933594 2.371094 5.675781 2.109375 5.675781 1.785156 C 5.675781 1.460938 5.933594 1.195312 6.253906 1.195312 Z M 6.253906 1.195312 "/>
<path style=" stroke:none;fill-rule:nonzero;fill:url(#linear1);" d="M 11.460938 3.546875 L 11.460938 4.917969 C 11.460938 5.980469 10.558594 6.875 9.53125 6.875 L 6.449219 6.875 C 5.605469 6.875 4.90625 7.597656 4.90625 8.445312 L 4.90625 11.382812 C 4.90625 12.21875 5.632812 12.710938 6.449219 12.953125 C 7.425781 13.238281 8.363281 13.289062 9.53125 12.953125 C 10.308594 12.726562 11.074219 12.273438 11.074219 11.382812 L 11.074219 10.207031 L 7.992188 10.207031 L 7.992188 9.8125 L 12.617188 9.8125 C 13.515625 9.8125 13.851562 9.1875 14.164062 8.25 C 14.484375 7.28125 14.46875 6.351562 14.164062 5.113281 C 13.941406 4.21875 13.515625 3.546875 12.617188 3.546875 Z M 9.726562 10.992188 C 10.046875 10.992188 10.304688 11.253906 10.304688 11.578125 C 10.304688 11.902344 10.046875 12.167969 9.726562 12.167969 C 9.40625 12.167969 9.148438 11.902344 9.148438 11.578125 C 9.148438 11.253906 9.40625 10.992188 9.726562 10.992188 Z M 9.726562 10.992188 "/>
<use xlink:href="#surface6" mask="url(#mask0)"/>
</g>
</svg>
